<?xml version="1.0" encoding="UTF-8"?>
<svg width="1600" height="200" viewBox="0 0 1600 200" xmlns="http://www.w3.org/2000/svg">
  <defs>
    <linearGradient id="g1" x1="0%" x2="100%" y1="0%" y2="0%">
      <stop offset="0%" stop-color="#9b59ff" stop-opacity="0.95"/>
      <stop offset="50%" stop-color="#5b3cff" stop-opacity="0.9"/>
      <stop offset="100%" stop-color="#22d3ee" stop-opacity="0.9"/>
    </linearGradient>
    <filter id="blur">
      <feGaussianBlur stdDeviation="15" />
    </filter>
  </defs>
  <g fill="none" stroke="url(#g1)" stroke-width="6" stroke-linecap="round" filter="url(#blur)">
    <path d="M0 120 C200 60 400 180 600 120 C800 60 1000 180 1200 120 C1400 60 1600 140 1600 140" opacity="0.95"/>
    <path d="M0 140 C200 80 400 200 600 140 C800 80 1000 200 1200 140 C1400 80 1600 160 1600 160" stroke-width="3" opacity="0.7"/>
    <path d="M0 100 C200 40 400 160 600 100 C800 40 1000 160 1200 100 C1400 40 1600 120 1600 120" stroke-width="2" opacity="0.5"/>
  </g>
</svg>